<?xml version="1.0" encoding="UTF-8" standalone="no"?>
<!-- Created with Inkscape (http://www.inkscape.org/) -->

<svg
   xmlns:dc="http://purl.org/dc/elements/1.1/"
   xmlns:cc="http://creativecommons.org/ns#"
   xmlns:rdf="http://www.w3.org/1999/02/22-rdf-syntax-ns#"
   xmlns:svg="http://www.w3.org/2000/svg"
   xmlns="http://www.w3.org/2000/svg"
   xmlns:xlink="http://www.w3.org/1999/xlink"
   xmlns:sodipodi="http://sodipodi.sourceforge.net/DTD/sodipodi-0.dtd"
   xmlns:inkscape="http://www.inkscape.org/namespaces/inkscape"
   width="210mm"
   height="297mm"
   viewBox="0 0 210 297"
   version="1.1"
   id="svg8"
   inkscape:version="0.92.1 r15371"
   sodipodi:docname="bitmaps.svg">
  <defs
     id="defs2">
    <linearGradient
       inkscape:collect="always"
       id="linearGradient4502">
      <stop
         style="stop-color:#507460;stop-opacity:1"
         offset="0"
         id="stop4498" />
      <stop
         style="stop-color:#c6d3c9;stop-opacity:1"
         offset="1"
         id="stop4500" />
    </linearGradient>
    <linearGradient
       inkscape:collect="always"
       xlink:href="#linearGradient4502"
       id="linearGradient4506"
       gradientUnits="userSpaceOnUse"
       x1="54.490475"
       y1="112.36907"
       x2="57.029377"
       y2="115.29839" />
    <linearGradient
       gradientTransform="translate(15.350559,-0.11339324)"
       inkscape:collect="always"
       xlink:href="#linearGradient4502"
       id="linearGradient4506-4"
       gradientUnits="userSpaceOnUse"
       x1="54.490475"
       y1="112.36907"
       x2="57.029377"
       y2="115.29839" />
    <linearGradient
       inkscape:collect="always"
       xlink:href="#linearGradient4698"
       id="linearGradient6658"
       gradientUnits="userSpaceOnUse"
       gradientTransform="translate(35,-4.0000015)"
       x1="52"
       y1="61.362183"
       x2="78"
       y2="91.362183" />
    <linearGradient
       id="linearGradient4698">
      <stop
         style="stop-color:#0000ff;stop-opacity:1;"
         offset="0"
         id="stop4700" />
      <stop
         style="stop-color:#0000a0;stop-opacity:1;"
         offset="1"
         id="stop4702" />
    </linearGradient>
    <linearGradient
       inkscape:collect="always"
       xlink:href="#linearGradient1887"
       id="linearGradient6652"
       gradientUnits="userSpaceOnUse"
       gradientTransform="translate(35,-2.0000011)"
       x1="56"
       y1="59.362183"
       x2="74"
       y2="75.362183" />
    <linearGradient
       id="linearGradient1887">
      <stop
         style="stop-color:#ffffff;stop-opacity:1;"
         offset="0"
         id="stop1888" />
      <stop
         style="stop-color:#d0d0d0;stop-opacity:1;"
         offset="1"
         id="stop1889" />
    </linearGradient>
  </defs>
  <sodipodi:namedview
     id="base"
     pagecolor="#ffffff"
     bordercolor="#666666"
     borderopacity="1.0"
     inkscape:pageopacity="0.0"
     inkscape:pageshadow="2"
     inkscape:zoom="5.6"
     inkscape:cx="201.37891"
     inkscape:cy="715.22249"
     inkscape:document-units="mm"
     inkscape:current-layer="layer1"
     showgrid="false"
     inkscape:window-width="1920"
     inkscape:window-height="1017"
     inkscape:window-x="-8"
     inkscape:window-y="-8"
     inkscape:window-maximized="1">
    <inkscape:grid
       type="xygrid"
       id="grid10" />
  </sodipodi:namedview>
  <metadata
     id="metadata5">
    <rdf:RDF>
      <cc:Work
         rdf:about="">
        <dc:format>image/svg+xml</dc:format>
        <dc:type
           rdf:resource="http://purl.org/dc/dcmitype/StillImage" />
        <dc:title></dc:title>
      </cc:Work>
    </rdf:RDF>
  </metadata>
  <g
     inkscape:label="Layer 1"
     inkscape:groupmode="layer"
     id="layer1">
    <g
       id="g4592"
       inkscape:export-xdpi="187.56926"
       inkscape:export-ydpi="187.56926">
      <rect
         ry="1.069078"
         y="106.5"
         x="50.799999"
         height="12.7"
         width="12.7"
         id="rect12"
         style="fill:#008080;fill-opacity:1;stroke:#008000;stroke-width:0.30000001;stroke-linecap:round;stroke-linejoin:round;stroke-miterlimit:4;stroke-dasharray:none;stroke-dashoffset:0;stroke-opacity:0.84951453;paint-order:markers fill stroke" />
      <g
         transform="matrix(1.3598684,0,0,1.3598684,-18.976697,-41.217531)"
         id="g4544">
        <path
           style="fill:none;stroke:#000000;stroke-width:0.26458332px;stroke-linecap:butt;stroke-linejoin:miter;stroke-opacity:1"
           d="m 51.759114,113.84691 c -0.347594,0.60205 0.307104,1.13393 1.488281,1.55915 1.181177,0.42523 3.047434,0.51972 3.047434,0.51972 0,0 -2.078871,-1.77177 -2.716705,-2.07887 -0.637833,-0.3071 -1.433909,-0.66701 -1.81901,0 z"
           id="path14"
           inkscape:connector-curvature="0"
           sodipodi:nodetypes="sccss" />
        <path
           style="fill:none;stroke:#000000;stroke-width:0.26458332px;stroke-linecap:butt;stroke-linejoin:miter;stroke-opacity:1"
           d="m 55.822357,111.64992 c -0.180506,0.37365 0.04725,0.77958 0.685083,1.03944 0.637834,0.25986 3.732514,0.63783 3.732514,0.63783 0,0 -2.007997,-1.37016 -2.811198,-1.81901 -0.803198,-0.44884 -1.372572,-0.34229 -1.606399,0.14174 z"
           id="path16"
           inkscape:connector-curvature="0"
           sodipodi:nodetypes="ssccs" />
        <path
           style="fill:url(#linearGradient4506);fill-opacity:1;stroke:#000000;stroke-width:0.26458332px;stroke-linecap:butt;stroke-linejoin:miter;stroke-opacity:1"
           d="m 51.759114,113.84691 4.063243,-2.19699 c 0,0 0,0 0,0 0,0 0.165365,-1.03943 1.819011,0 1.653645,1.03944 2.598586,1.67727 2.598586,1.67727 l -3.945125,2.59859 c 0,0 -2.031622,-1.79539 -3.071058,-2.31511 -1.039435,-0.51971 -1.464657,0.23624 -1.464657,0.23624 z"
           id="path18"
           inkscape:connector-curvature="0" />
      </g>
    </g>
    <g
       id="g4607"
       inkscape:export-xdpi="187.56926"
       inkscape:export-ydpi="187.56926">
      <rect
         ry="1.069078"
         y="106.3866"
         x="66.150558"
         height="12.7"
         width="12.7"
         id="rect12-1"
         style="fill:#008080;fill-opacity:1;stroke:#008000;stroke-width:0.30000001;stroke-linecap:round;stroke-linejoin:round;stroke-miterlimit:4;stroke-dasharray:none;stroke-dashoffset:0;stroke-opacity:0.84951453;paint-order:markers fill stroke" />
      <g
         transform="translate(-0.35435268,1.4174107)"
         id="g4549">
        <path
           style="fill:none;stroke:#000000;stroke-width:0.26458332px;stroke-linecap:butt;stroke-linejoin:miter;stroke-opacity:1"
           d="m 67.109673,113.73351 c -0.347594,0.60205 0.307104,1.13393 1.488281,1.55915 1.181177,0.42523 3.047434,0.51972 3.047434,0.51972 0,0 -2.078871,-1.77177 -2.716705,-2.07887 -0.637833,-0.3071 -1.433909,-0.66701 -1.81901,0 z"
           id="path14-5"
           inkscape:connector-curvature="0"
           sodipodi:nodetypes="sccss" />
        <path
           style="fill:none;stroke:#000000;stroke-width:0.26458332px;stroke-linecap:butt;stroke-linejoin:miter;stroke-opacity:1"
           d="m 71.172916,111.53652 c -0.180506,0.37365 0.04725,0.77958 0.685083,1.03944 0.637834,0.25986 3.732514,0.63783 3.732514,0.63783 0,0 -2.007997,-1.37016 -2.811198,-1.81901 -0.803198,-0.44884 -1.372572,-0.34229 -1.606399,0.14174 z"
           id="path16-4"
           inkscape:connector-curvature="0"
           sodipodi:nodetypes="ssccs" />
        <path
           style="fill:url(#linearGradient4506-4);fill-opacity:1;stroke:#000000;stroke-width:0.26458332px;stroke-linecap:butt;stroke-linejoin:miter;stroke-opacity:1"
           d="m 67.109673,113.73351 4.063243,-2.19699 c 0,0 0,0 0,0 0,0 0.165365,-1.03943 1.819011,0 1.653645,1.03944 2.598586,1.67727 2.598586,1.67727 l -3.945125,2.59859 c 0,0 -2.031622,-1.79539 -3.071058,-2.31511 -1.039435,-0.51971 -1.464657,0.23624 -1.464657,0.23624 z"
           id="path18-5"
           inkscape:connector-curvature="0" />
      </g>
      <path
         inkscape:connector-curvature="0"
         id="path4551"
         d="m 68.933407,112.40587 2.220611,-1.81901 -0.590589,-0.56696 2.055246,-0.21261 -0.637834,1.63002 -0.425225,-0.54334 -2.291479,1.86626 z"
         style="fill:#ffffff;stroke:#000000;stroke-width:0.26458332px;stroke-linecap:butt;stroke-linejoin:miter;stroke-opacity:1" />
      <g
         inkscape:export-ydpi="270"
         inkscape:export-xdpi="270"
         inkscape:export-filename="C:\Users\Dan\Heeks Software\HeeksCAD\bitmaps\save.png"
         id="g6662"
         transform="matrix(0.15901576,0,0,0.15901576,59.705474,98.147008)">
        <path
           style="fill:#8080ff;fill-opacity:1;fill-rule:evenodd;stroke:#0000a0;stroke-width:2;stroke-linecap:butt;stroke-linejoin:round;stroke-miterlimit:4;stroke-dasharray:none;stroke-opacity:1"
           d="m 85,57.362183 h 30 v 30 H 90 l -5,-5 z"
           id="path24096"
           sodipodi:nodetypes="cccccc"
           inkscape:connector-curvature="0" />
        <path
           style="fill:url(#linearGradient6658);fill-opacity:1;fill-rule:evenodd;stroke:none;stroke-width:2;stroke-linecap:butt;stroke-linejoin:miter;stroke-miterlimit:4;stroke-dasharray:none;stroke-opacity:1"
           d="m 87,59.362182 v 22.000001 l 4,4 h 22 v -26 z"
           id="path24098"
           sodipodi:nodetypes="cccccc"
           inkscape:connector-curvature="0" />
        <path
           style="fill:#d0d0d0;fill-opacity:1;fill-rule:evenodd;stroke:#606060;stroke-width:2;stroke-linecap:butt;stroke-linejoin:round;stroke-miterlimit:4;stroke-dasharray:none;stroke-opacity:1"
           d="m 92,87.362183 v -10 h 15 v 10 z"
           id="path24100"
           sodipodi:nodetypes="ccccc"
           inkscape:connector-curvature="0" />
        <path
           style="fill:#80e0ff;fill-opacity:1;stroke:#606060;stroke-width:2.26062298;stroke-linejoin:round;stroke-miterlimit:4;stroke-opacity:1"
           d="m 96,79.362183 h 2 v 6 h -2 z"
           id="rect24102"
           sodipodi:nodetypes="ccccc"
           inkscape:connector-curvature="0" />
        <path
           style="fill:#ffffff;fill-opacity:1;fill-rule:evenodd;stroke:#606060;stroke-width:2;stroke-linecap:butt;stroke-linejoin:round;stroke-miterlimit:4;stroke-dasharray:none;stroke-opacity:1"
           d="m 89,57.362183 v 14 l 2,2 h 18 l 2,-2 v -14 z"
           id="path24104"
           sodipodi:nodetypes="ccccccc"
           inkscape:connector-curvature="0" />
        <path
           style="fill:url(#linearGradient6652);fill-opacity:1;fill-rule:evenodd;stroke:none;stroke-width:2;stroke-linecap:butt;stroke-linejoin:round;stroke-miterlimit:4;stroke-dasharray:none;stroke-opacity:1"
           d="m 91,59.362182 v 11.000001 l 1,1 16,10e-7 1,-1 V 59.362183 Z"
           id="path24110"
           sodipodi:nodetypes="ccccccc"
           inkscape:connector-curvature="0" />
      </g>
    </g>
  </g>
</svg>
